Dactyl Sans Italic.sfdir
StartChar: &
Encoding: 38 38 0
Width: 433
InSpiro: 1
        Flags: H
        LayerCount: 2
        Back
        SplineSet
334 30 m 0
329 30 l 0
202 180 l 0
167 221 133 263 113 314 c 0
91 366 86 425 97 482 c 0
105 525 123 566 153 599 c 0
168 615 186 628 207 636 c 0
228 643 252 643 272 633 c 0
284 626 294 616 301 605 c 0
309 593 313 580 316 567 c 0
320 537 313 507 301 481 c 0
287 451 268 423 247 399 c 0
225 374 202 351 178 330 c 0
153 308 127 287 105 263 c 0
83 239 64 211 56 181 c 0
47 150 49 116 64 89 c 0
78 62 103 42 132 33 c 0
170 19 214 24 252 42 c 0
292 60 325 93 344 134 c 0
349 134 l 0
330 92 296 58 255 39 c 0
216 21 171 16 131 30 c 0
101 39 74 59 60 87 c 0
44 115 42 150 52 182 c 0
61 213 80 240 102 265 c 0
124 289 150 310 175 333 c 0
198 354 222 376 243 401 c 0
263 425 282 452 296 482 c 0
308 508 316 537 313 566 c 0
311 579 306 592 299 603 c 0
292 614 282 623 271 630 c 0
251 639 228 640 207 633 c 0
187 626 169 612 155 597 c 0
125 565 108 523 101 481 c 0
91 425 96 368 117 316 c 0
136 266 170 223 205 183 c 0
334 30 l 0
Z
Spiro
334 30 v
329 30 v
202 180 ]
113 314 c
97 482 c
153 599 c
272 633 c
316 567 c
301 481 c
247 399 c
178 330 c
105 263 c
56 181 c
64 89 c
132 33 c
252 42 c
344 134 v
349 134 v
255 39 c
131 30 c
60 87 c
52 182 c
102 265 c
175 333 c
243 401 c
296 482 c
313 566 c
271 630 c
155 597 c
101 481 c
117 316 c
205 183 [
0 0 z
EndSpiro
EndSplineSet
        Fore
        SplineSet
361 0 m 0
298 0 l 0
180 158 l 0
145 203 112 250 91 304 c 0
68 359 60 421 71 480 c 0
80 532 104 583 143 621 c 0
162 639 185 654 211 662 c 0
237 669 265 668 290 657 c 0
305 649 318 637 327 623 c 0
337 609 343 593 347 577 c 0
353 541 344 504 330 471 c 0
315 438 295 409 273 383 c 0
250 356 224 331 198 309 c 0
175 289 151 270 131 249 c 0
111 228 94 203 87 176 c 0
80 151 82 125 94 103 c 0
105 82 124 66 147 58 c 0
164 51 182 50 200 52 c 0
218 54 236 60 252 70 c 0
285 89 311 122 322 160 c 0
385 160 l 0
369 103 331 53 281 23 c 0
233 -5 173 -16 120 1 c 0
84 12 52 36 35 69 c 0
16 103 14 145 26 183 c 0
36 217 57 247 81 274 c 0
105 301 132 325 159 350 c 0
180 370 201 390 221 413 c 0
240 435 259 460 272 488 c 0
281 507 287 529 286 551 c 0
285 561 282 571 277 580 c 0
272 589 265 596 257 602 c 0
249 606 240 608 232 609 c 0
223 609 214 607 206 604 c 0
190 598 176 586 166 573 c 0
145 546 135 512 132 479 c 0
127 427 138 376 159 329 c 0
178 283 205 242 232 201 c 0
361 0 l 0
Z
Spiro
361 0 v
298 0 v
180 158 ]
91 304 c
71 480 c
143 621 c
290 657 c
347 577 c
330 471 c
273 383 c
198 309 c
131 249 c
87 176 c
94 103 c
147 58 c
252 70 c
322 160 v
385 160 v
281 23 c
120 1 c
35 69 c
26 183 c
81 274 c
159 350 c
221 413 c
272 488 c
286 551 c
257 602 c
166 573 c
132 479 c
159 329 c
232 201 [
0 0 z
EndSpiro
EndSplineSet
        EndChar
StartChar: '
Encoding: 39 39 0
Width: 133
InSpiro: 1
        Flags: H
        LayerCount: 2
        Back
        SplineSet
120 634 m 0
124 634 l 0
101 480 l 0
97 480 l 0
120 634 l 0
Z
Spiro
120 634 v
124 634 v
101 480 v
97 480 v
0 0 z
EndSpiro
EndSplineSet
        Fore
        SplineSet
98 660 m 0
160 660 l 0
128 450 l 0
66 450 l 0
98 660 l 0
Z
Spiro
98 660 v
160 660 v
128 450 v
66 450 v
0 0 z
EndSpiro
EndSplineSet
        EndChar
StartChar: (
Encoding: 40 40 0
Width: 283
InSpiro: 1
        Flags: H
        LayerCount: 2
        Back
        SplineSet
274 636 m 0
274 632 l 0
221 597 176 551 143 499 c 0
110 448 88 391 79 332 c 0
70 275 74 217 93 164 c 0
110 113 142 66 184 32 c 0
184 28 l 0
140 62 107 109 89 161 c 0
69 215 66 274 75 332 c 0
84 392 106 450 140 502 c 0
174 555 220 601 274 636 c 0
Z
Spiro
274 636 v
274 632 v
143 499 c
79 332 c
93 164 c
184 32 v
184 28 v
89 161 c
75 332 c
140 502 c
0 0 z
EndSpiro
EndSplineSet
        Fore
        SplineSet
314 690 m 0
305 630 l 0
252 595 207 549 174 497 c 0
141 446 119 389 110 330 c 0
101 273 105 215 124 162 c 0
141 111 173 64 215 30 c 0
207 -30 l 0
148 4 100 58 73 121 c 0
44 186 37 259 48 330 c 0
59 405 90 476 135 538 c 0
181 601 243 654 314 690 c 0
Z
Spiro
314 690 v
305 630 v
174 497 c
110 330 c
124 162 c
215 30 v
207 -30 v
73 121 c
48 330 c
135 538 c
0 0 z
EndSpiro
EndSplineSet
        EndChar
StartChar: +
Encoding: 43 43 0
Width: 433
InSpiro: 1
        Flags: H
        LayerCount: 2
        Back
        SplineSet
75 330 m 0
75 334 l 0
379 334 l 0
379 330 l 0
75 330 l 0
Z
247 484 m 0
252 484 l 0
206 180 l 0
201 180 l 0
247 484 l 0
Z
Spiro
75 330 v
75 334 v
379 334 v
379 330 v
247 484 v
252 484 v
206 180 v
201 180 v
0 0 z
EndSpiro
EndSplineSet
        Fore
        SplineSet
44 300 m 0
53 360 l 0
415 360 l 0
406 300 l 0
44 300 l 0
Z
224 510 m 0
287 510 l 0
233 150 l 0
170 150 l 0
224 510 l 0
Z
Spiro
44 300 v
53 360 v
415 360 v
406 300 v
224 510 v
287 510 v
233 150 v
170 150 v
0 0 z
EndSpiro
EndSplineSet
        EndChar
StartChar: /
Encoding: 47 47 0
Width: 433
InSpiro: 1
        Flags: H
        LayerCount: 2
        Back
        SplineSet
419 636 m 0
424 636 l 0
34 28 l 0
30 28 l 0
419 636 l 0
Z
Spiro
419 636 v
424 636 v
34 28 v
30 28 v
0 0 z
EndSpiro
EndSplineSet
        Fore
        SplineSet
401 690 m 0
464 690 l 0
57 -30 l 0
-5 -30 l 0
401 690 l 0
Z
Spiro
401 690 v
464 690 v
57 -30 v
-5 -30 v
0 0 z
EndSpiro
EndSplineSet
        EndChar
StartChar: 0
Encoding: 48 48 0
Width: 433
InSpiro: 1
        Flags: H
        LayerCount: 2
        Back
        SplineSet
79 331 m 0
67 269 51 206 65 146 c 0
71 117 84 90 104 70 c 0
124 49 152 35 181 33 c 0
214 30 247 43 272 64 c 0
298 85 316 114 330 145 c 0
355 203 362 268 374 331 c 0
385 392 400 455 386 516 c 0
379 544 366 570 346 591 c 0
326 612 299 627 271 630 c 0
237 633 203 620 177 598 c 0
151 576 132 547 120 516 c 0
95 457 90 393 79 331 c 0
Z
272 633 m 0
301 630 328 616 348 595 c 0
369 574 383 547 390 519 c 0
405 457 390 393 379 332 c 0
367 268 359 203 334 144 c 0
320 113 301 83 275 62 c 0
249 40 215 27 182 30 c 0
152 32 124 46 104 67 c 0
83 88 69 115 63 144 c 0
48 205 63 269 75 332 c 0
86 395 93 460 119 519 c 0
132 550 151 579 177 601 c 0
204 622 238 635 272 633 c 0
Z
419 634 m 0
424 634 l 0
34 30 l 0
30 30 l 0
419 634 l 0
Z
Spiro
79 331 c
65 146 c
181 33 c
330 145 c
374 331 c
386 516 c
271 630 c
120 516 c
272 633 c
390 519 c
379 332 c
334 144 c
182 30 c
63 144 c
75 332 c
119 519 c
419 634 v
424 634 v
34 30 v
30 30 v
0 0 z
EndSpiro
EndSplineSet
        Fore
        SplineSet
110 329 m 0
99 274 81 219 90 164 c 0
94 138 104 113 120 94 c 0
137 75 161 61 187 59 c 0
201 57 216 59 230 65 c 0
244 70 257 78 268 88 c 0
290 108 304 135 315 163 c 0
334 216 336 273 347 329 c 0
357 383 374 439 366 494 c 0
361 519 351 544 335 563 c 0
318 583 294 597 269 600 c 0
254 601 238 599 224 593 c 0
210 588 197 580 186 570 c 0
164 549 149 522 140 494 c 0
121 441 120 384 110 329 c 0
Z
278 659 m 0
310 656 341 641 365 619 c 0
388 597 405 568 415 537 c 0
435 470 422 398 410 330 c 0
397 258 385 186 353 122 c 0
336 88 313 57 284 34 c 0
254 11 217 -2 180 0 c 0
147 2 116 16 92 39 c 0
68 61 51 90 42 122 c 0
21 189 35 261 48 330 c 0
60 400 72 472 104 537 c 0
120 570 143 602 172 625 c 0
202 647 240 661 278 659 c 0
Z
397 660 m 0
460 660 l 0
61 0 l 0
-1 0 l 0
397 660 l 0
Z
Spiro
110 329 c
90 164 c
187 59 c
315 163 c
347 329 c
366 494 c
269 600 c
140 494 c
278 659 c
415 537 c
410 330 c
353 122 c
180 0 c
42 122 c
48 330 c
104 537 c
397 660 v
460 660 v
61 0 v
-1 0 v
0 0 z
EndSpiro
EndSplineSet
        EndChar
StartChar: 1
Encoding: 49 49 0
Width: 193
InSpiro: 1
        Flags: H
        LayerCount: 2
        Back
        SplineSet
106 510 m 0
102 510 l 0
123 634 l 0
128 634 l 0
38 30 l 0
33 30 l 0
105 511 l 0
106 510 l 0
Z
Spiro
106 510 v
102 510 v
123 634 v
128 634 v
38 30 v
33 30 v
105 511 v
0 0 z
EndSpiro
EndSplineSet
        Fore
        SplineSet
133 480 m 0
71 480 l 0
157 660 l 0
220 660 l 0
121 0 l 0
58 0 l 0
134 502 l 0
133 480 l 0
Z
Spiro
133 480 v
71 480 v
157 660 v
220 660 v
121 0 v
58 0 v
134 502 v
0 0 z
EndSpiro
EndSplineSet
        EndChar
StartChar: 3
Encoding: 51 51 0
Width: 433
InSpiro: 1
        Flags: H
        LayerCount: 2
        Back
        SplineSet
109 530 m 0
105 530 l 0
120 561 144 588 174 607 c 0
203 625 237 635 272 633 c 0
308 630 343 612 367 584 c 0
390 555 401 518 401 482 c 0
400 438 383 393 350 365 c 0
333 350 313 341 292 335 c 0
271 330 249 329 228 330 c 0
224 330 l 0
224 334 l 0
228 334 l 0
248 334 270 334 290 339 c 0
310 344 330 354 346 368 c 0
378 395 395 438 396 481 c 0
396 516 385 553 363 581 c 0
340 608 306 626 271 630 c 0
237 632 204 622 176 605 c 0
147 586 123 560 109 530 c 0
Z
224 330 m 0
224 334 l 0
228 334 l 0
248 334 268 333 288 328 c 0
308 323 326 313 340 298 c 0
353 282 360 262 362 241 c 0
364 221 361 200 356 181 c 0
344 141 321 105 291 78 c 0
260 51 222 32 182 30 c 0
149 27 115 35 90 55 c 0
65 73 48 103 45 134 c 0
49 134 l 0
52 103 68 75 93 57 c 0
117 38 150 30 181 33 c 0
220 36 257 54 287 81 c 0
317 107 339 143 351 182 c 0
356 201 359 221 357 240 c 0
355 260 347 279 335 295 c 0
322 309 304 319 285 324 c 0
267 329 247 330 228 330 c 0
224 330 l 0
Z
Spiro
109 530 v
105 530 v
174 607 c
272 633 c
367 584 c
401 482 c
350 365 c
228 330 [
224 330 v
224 334 v
228 334 ]
346 368 c
396 481 c
363 581 c
271 630 c
176 605 c
224 330 v
224 334 v
228 334 ]
340 298 c
356 181 c
291 78 c
182 30 c
90 55 c
45 134 v
49 134 v
93 57 c
181 33 c
287 81 c
351 182 c
335 295 c
228 330 [
0 0 z
EndSpiro
EndSplineSet
        Fore
        SplineSet
136 500 m 0
74 500 l 0
85 545 112 587 149 617 c 0
185 646 233 662 280 659 c 0
322 655 363 635 391 603 c 0
418 570 432 526 433 484 c 0
433 431 412 377 373 343 c 0
353 325 329 313 303 307 c 0
278 300 252 299 226 300 c 0
193 300 l 0
202 360 l 0
235 360 l 0
251 360 267 360 283 364 c 0
299 368 314 375 327 386 c 0
352 407 367 441 369 475 c 0
370 505 362 536 344 560 c 0
325 583 296 598 267 600 c 0
237 601 207 591 184 573 c 0
160 554 143 528 136 500 c 0
Z
193 300 m 0
202 360 l 0
235 360 l 0
259 360 283 359 307 353 c 0
330 346 353 334 369 316 c 0
385 297 393 272 396 248 c 0
398 223 394 198 387 175 c 0
372 129 345 87 309 56 c 0
273 24 229 2 182 0 c 0
138 -2 93 11 63 42 c 0
32 72 16 117 23 160 c 0
85 160 l 0
81 133 90 104 110 86 c 0
129 66 157 57 185 59 c 0
218 60 249 75 274 98 c 0
298 120 316 151 325 184 c 0
328 199 330 215 328 230 c 0
326 246 320 261 310 273 c 0
299 284 285 291 271 295 c 0
256 299 241 300 226 300 c 0
193 300 l 0
Z
Spiro
136 500 v
74 500 v
149 617 c
280 659 c
391 603 c
433 484 c
373 343 c
226 300 [
193 300 v
202 360 v
235 360 ]
327 386 c
369 475 c
344 560 c
267 600 c
184 573 c
193 300 v
202 360 v
235 360 ]
369 316 c
387 175 c
309 56 c
182 0 c
63 42 c
23 160 v
85 160 v
110 86 c
185 59 c
274 98 c
325 184 c
310 273 c
226 300 [
0 0 z
EndSpiro
EndSplineSet
        EndChar
StartChar: 6
Encoding: 54 54 0
Width: 433
InSpiro: 1
        Flags: H
        LayerCount: 2
        Back
        SplineSet
409 530 m 0
404 530 l 0
402 560 385 590 361 609 c 0
335 627 302 634 272 630 c 0
239 625 209 610 185 588 c 0
160 566 142 539 128 510 c 0
101 453 91 391 79 331 c 0
66 269 50 206 65 146 c 0
71 117 85 90 105 70 c 0
125 49 153 35 182 33 c 0
206 31 231 37 252 49 c 0
273 61 292 78 307 98 c 0
336 136 353 183 359 231 c 0
364 274 359 319 339 358 c 0
328 376 315 392 298 405 c 0
281 418 261 426 241 430 c 0
207 435 172 425 144 407 c 0
115 388 92 361 79 330 c 0
75 330 l 0
88 362 112 391 143 410 c 0
172 428 207 437 242 433 c 0
263 429 283 421 300 408 c 0
318 396 332 379 343 361 c 0
364 322 369 275 364 232 c 0
358 182 339 134 309 95 c 0
293 75 274 58 252 46 c 0
231 34 205 27 181 30 c 0
151 32 123 46 103 68 c 0
82 89 68 116 62 145 c 0
47 206 62 270 75 332 c 0
87 393 98 455 126 512 c 0
140 541 159 568 183 590 c 0
208 612 238 627 271 633 c 0
303 638 338 631 365 612 c 0
390 592 407 562 409 530 c 0
Z
Spiro
409 530 v
404 530 v
361 609 c
272 630 c
128 510 c
79 331 c
65 146 c
182 33 c
307 98 c
359 231 c
339 358 c
241 430 c
144 407 c
79 330 v
75 330 v
143 410 c
242 433 c
343 361 c
364 232 c
309 95 c
181 30 c
62 145 c
75 332 c
126 512 c
271 633 c
365 612 c
0 0 z
EndSpiro
EndSplineSet
        Fore
        SplineSet
436 500 m 0
373 500 l 0
378 526 368 556 349 575 c 0
329 593 301 601 275 600 c 0
245 597 217 583 195 564 c 0
174 544 158 518 147 491 c 0
125 439 121 382 110 328 c 0
98 273 80 217 90 162 c 0
94 136 104 112 121 93 c 0
138 73 162 60 188 59 c 0
208 57 228 63 246 74 c 0
263 85 278 100 290 117 c 0
313 149 326 188 332 228 c 0
337 265 334 304 318 338 c 0
309 353 298 368 284 379 c 0
270 390 253 397 236 400 c 0
206 404 175 393 152 374 c 0
129 355 112 328 106 300 c 0
44 300 l 0
54 346 80 389 118 419 c 0
155 448 203 465 251 459 c 0
299 452 343 420 369 378 c 0
394 334 400 281 395 231 c 0
388 173 365 117 329 73 c 0
310 50 288 31 262 17 c 0
237 4 207 -2 179 0 c 0
146 2 115 18 91 40 c 0
67 63 50 92 41 124 c 0
20 190 34 262 48 331 c 0
61 398 76 467 109 528 c 0
126 559 147 589 175 612 c 0
203 636 236 653 272 659 c 0
294 662 317 661 339 656 c 0
360 650 381 639 398 624 c 0
414 608 426 588 433 567 c 0
440 545 441 522 436 500 c 0
Z
Spiro
436 500 v
373 500 v
349 575 c
275 600 c
147 491 c
110 328 c
90 162 c
188 59 c
290 117 c
332 228 c
318 338 c
236 400 c
152 374 c
106 300 v
44 300 v
118 419 c
251 459 c
369 378 c
395 231 c
329 73 c
179 0 c
41 124 c
48 331 c
109 528 c
272 659 c
398 624 c
0 0 z
EndSpiro
EndSplineSet
        EndChar
StartChar: 9
Encoding: 57 57 0
Width: 433
InSpiro: 1
        Flags: H
        LayerCount: 2
        Back
        SplineSet
184 30 m 0
179 30 l 0
223 71 262 118 296 170 c 0
328 220 355 274 374 332 c 0
381 356 387 380 392 406 c 0
395 430 397 455 396 481 c 0
393 516 382 552 361 580 c 0
339 607 306 626 271 630 c 0
250 631 229 628 209 621 c 0
190 613 172 602 157 588 c 0
126 560 105 522 101 482 c 0
96 445 106 406 130 378 c 0
153 349 190 334 227 333 c 0
259 331 292 341 320 359 c 0
349 377 373 403 389 434 c 0
394 434 l 0
377 402 353 375 323 357 c 0
294 339 260 329 226 330 c 0
188 331 150 346 126 375 c 0
101 403 92 443 97 481 c 0
102 523 124 562 156 591 c 0
171 605 189 616 209 624 c 0
229 631 250 635 272 633 c 0
307 629 341 610 364 582 c 0
386 553 398 517 401 482 c 0
403 456 401 431 397 406 c 0
392 380 386 355 379 331 c 0
360 273 333 219 300 169 c 0
266 118 227 71 184 30 c 0
Z
Spiro
184 30 v
179 30 v
296 170 c
374 332 c
392 406 c
396 481 c
361 580 c
271 630 c
157 588 c
101 482 c
130 378 c
227 333 c
320 359 c
389 434 v
394 434 v
323 357 c
226 330 c
126 375 c
97 481 c
156 591 c
272 633 c
364 582 c
401 482 c
397 406 c
379 331 c
300 169 c
0 0 z
EndSpiro
EndSplineSet
        Fore
        SplineSet
211 0 m 0
148 0 l 0
192 48 232 100 267 157 c 0
301 212 329 272 348 335 c 0
354 357 360 380 364 404 c 0
367 426 370 449 369 473 c 0
367 502 358 533 341 557 c 0
323 580 296 597 267 600 c 0
250 601 233 598 217 592 c 0
202 586 188 576 176 565 c 0
152 542 137 512 133 480 c 0
129 450 135 418 155 395 c 0
173 372 203 359 233 359 c 0
262 358 292 368 316 387 c 0
339 405 358 431 367 460 c 0
430 460 l 0
416 414 388 374 351 345 c 0
314 316 269 299 224 300 c 0
178 300 133 318 104 353 c 0
74 387 64 434 70 479 c 0
76 529 103 575 141 609 c 0
178 642 229 663 280 659 c 0
321 655 361 634 388 602 c 0
414 569 428 527 432 486 c 0
434 458 432 431 428 405 c 0
423 377 417 350 409 324 c 0
390 263 362 205 329 151 c 0
295 96 255 45 211 0 c 0
Z
Spiro
211 0 v
148 0 v
267 157 c
348 335 c
364 404 c
369 473 c
341 557 c
267 600 c
176 565 c
133 480 c
155 395 c
233 359 c
316 387 c
367 460 v
430 460 v
351 345 c
224 300 c
104 353 c
70 479 c
141 609 c
280 659 c
388 602 c
432 486 c
428 405 c
409 324 c
329 151 c
0 0 z
EndSpiro
EndSplineSet
        EndChar
StartChar: C
Encoding: 67 67 0
Width: 433
InSpiro: 1
        Flags: H
        LayerCount: 2
        Back
        SplineSet
409 530 m 0
404 530 l 0
402 560 385 590 361 609 c 0
335 627 302 634 272 630 c 0
239 625 209 610 184 588 c 0
160 567 141 540 127 511 c 0
99 455 89 393 79 332 c 0
68 272 57 210 72 151 c 0
78 123 91 96 109 75 c 0
128 54 154 38 182 33 c 0
214 26 249 36 278 54 c 0
307 72 331 101 344 134 c 0
349 134 l 0
336 99 311 70 281 51 c 0
251 32 215 23 181 30 c 0
152 35 127 51 107 72 c 0
88 94 76 121 69 149 c 0
54 208 64 270 75 331 c 0
85 392 96 455 124 512 c 0
138 541 158 569 182 590 c 0
207 612 238 628 271 633 c 0
303 637 338 631 365 612 c 0
390 593 407 562 409 530 c 0
Z
Spiro
409 530 v
404 530 v
361 609 c
272 630 c
127 511 c
79 332 c
72 151 c
182 33 c
278 54 c
344 134 v
349 134 v
281 51 c
181 30 c
69 149 c
75 331 c
124 512 c
271 633 c
365 612 c
0 0 z
EndSpiro
EndSplineSet
        Fore
        SplineSet
436 500 m 0
373 500 l 0
377 526 368 555 349 574 c 0
329 592 301 601 275 600 c 0
245 598 217 584 195 564 c 0
173 544 157 519 146 492 c 0
124 440 119 384 110 330 c 0
100 275 86 220 97 166 c 0
101 140 111 116 128 96 c 0
144 77 167 62 193 59 c 0
222 54 252 65 275 84 c 0
298 103 315 130 322 160 c 0
385 160 l 0
376 111 349 65 310 35 c 0
290 20 269 8 245 2 c 0
222 -4 197 -5 174 0 c 0
143 6 115 23 93 47 c 0
72 70 57 98 48 129 c 0
28 193 36 262 48 329 c 0
59 397 74 466 107 528 c 0
124 560 146 589 174 612 c 0
202 636 236 653 272 659 c 0
294 662 317 661 339 655 c 0
360 650 381 639 398 624 c 0
414 608 427 588 433 567 c 0
440 545 441 522 436 500 c 0
Z
Spiro
436 500 v
373 500 v
349 574 c
275 600 c
146 492 c
110 330 c
97 166 c
193 59 c
275 84 c
322 160 v
385 160 v
310 35 c
174 0 c
48 129 c
48 329 c
107 528 c
272 659 c
398 624 c
0 0 z
EndSpiro
EndSplineSet
        EndChar
StartChar: I
Encoding: 73 73 0
Width: 133
InSpiro: 1
        Flags: H
        LayerCount: 2
        Back
        SplineSet
120 634 m 0
124 634 l 0
34 30 l 0
30 30 l 0
120 634 l 0
Z
Spiro
120 634 v
124 634 v
34 30 v
30 30 v
0 0 z
EndSpiro
EndSplineSet
        Fore
        SplineSet
98 660 m 0
160 660 l 0
61 0 l 0
-1 0 l 0
98 660 l 0
Z
Spiro
98 660 v
160 660 v
61 0 v
-1 0 v
0 0 z
EndSpiro
EndSplineSet
        EndChar
StartChar: L
Encoding: 76 76 0
Width: 433
InSpiro: 1
        Flags: H
        LayerCount: 2
        Back
        SplineSet
120 634 m 0
124 634 l 0
34 34 l 0
334 34 l 0
334 30 l 0
30 30 l 0
30 30 l 0
120 634 l 0
Z
Spiro
120 634 v
124 634 v
34 34 v
334 34 v
334 30 v
30 30 v
30 30 v
0 0 z
EndSpiro
EndSplineSet
        Fore
        SplineSet
98 660 m 0
160 660 l 0
70 60 l 0
370 60 l 0
361 0 l 0
-1 0 l 0
-1 0 l 0
98 660 l 0
Z
Spiro
98 660 v
160 660 v
70 60 v
370 60 v
361 0 v
-1 0 v
-1 0 v
0 0 z
EndSpiro
EndSplineSet
        EndChar
StartChar: Q
Encoding: 81 81 0
Width: 433
InSpiro: 1
        Flags: H
        LayerCount: 2
        Back
        SplineSet
277 184 m 0
282 184 l 0
334 30 l 0
329 30 l 0
277 184 l 0
Z
79 331 m 0
67 270 56 208 70 148 c 0
76 120 88 93 107 71 c 0
126 50 152 35 181 33 c 0
197 31 214 34 229 40 c 0
244 46 259 55 271 66 c 0
295 88 313 117 326 148 c 0
350 206 362 269 374 332 c 0
384 392 394 454 381 514 c 0
374 541 363 568 344 590 c 0
325 611 299 627 271 630 c 0
254 631 237 628 221 622 c 0
206 616 191 607 179 596 c 0
154 573 137 544 125 513 c 0
101 454 90 392 79 331 c 0
Z
272 633 m 0
300 630 327 614 346 592 c 0
365 571 377 544 384 516 c 0
398 455 389 392 379 331 c 0
367 267 354 204 329 146 c 0
315 115 298 86 273 63 c 0
248 41 215 27 182 30 c 0
153 32 126 47 106 69 c 0
86 90 74 117 68 146 c 0
53 206 63 270 75 332 c 0
86 394 98 457 123 516 c 0
136 547 153 577 179 599 c 0
191 610 206 620 222 626 c 0
237 632 255 634 272 633 c 0
Z
Spiro
277 184 v
282 184 v
334 30 v
329 30 v
79 331 o
70 148 c
181 33 c
326 148 c
374 332 o
381 514 c
271 630 c
125 513 c
272 633 c
384 516 c
379 331 o
329 146 c
182 30 c
68 146 c
75 332 o
123 516 c
0 0 z
EndSpiro
EndSplineSet
        Fore
        SplineSet
254 210 m 0
317 210 l 0
361 0 l 0
298 0 l 0
254 210 l 0
Z
110 329 m 0
100 275 87 220 95 166 c 0
98 140 107 116 122 96 c 0
138 76 161 61 187 59 c 0
201 57 216 60 229 65 c 0
243 71 255 80 266 90 c 0
286 111 300 138 310 166 c 0
328 218 337 274 347 330 c 0
356 383 367 438 359 492 c 0
355 516 346 541 331 561 c 0
316 581 293 596 269 600 c 0
254 601 238 599 225 593 c 0
211 588 198 579 188 569 c 0
166 548 153 520 144 492 c 0
126 439 119 383 110 329 c 0
Z
278 659 m 0
310 656 340 640 363 617 c 0
386 594 401 565 411 534 c 0
430 467 422 396 410 329 c 0
397 258 379 188 348 124 c 0
331 90 310 59 282 35 c 0
253 12 216 -2 180 0 c 0
147 2 116 17 93 40 c 0
70 63 55 92 46 124 c 0
26 190 35 261 48 330 c 0
60 399 77 470 109 534 c 0
125 567 146 599 175 623 c 0
203 646 240 661 278 659 c 0
Z
Spiro
254 210 v
317 210 v
361 0 v
298 0 v
110 329 o
95 166 c
187 59 c
310 166 c
347 330 o
359 492 c
269 600 c
144 492 c
278 659 c
411 534 c
410 329 o
348 124 c
180 0 c
46 124 c
48 330 o
109 534 c
0 0 z
EndSpiro
EndSplineSet
        EndChar
StartChar: S
Encoding: 83 83 0
Width: 433
InSpiro: 1
        Flags: H
        LayerCount: 2
        Back
        SplineSet
409 530 m 0
404 530 l 0
398 559 381 586 358 604 c 0
333 622 302 630 272 630 c 0
230 628 191 610 161 583 c 0
131 556 110 519 101 481 c 0
95 459 94 436 100 415 c 0
105 394 116 376 132 363 c 0
144 352 160 345 177 340 c 0
193 336 210 333 227 332 c 0
243 330 260 328 277 324 c 0
293 320 309 313 323 303 c 0
339 289 350 269 356 248 c 0
361 226 360 203 356 181 c 0
347 140 323 103 292 76 c 0
261 49 222 32 182 30 c 0
149 28 116 36 91 56 c 0
66 74 49 103 45 134 c 0
49 134 l 0
53 104 69 76 94 58 c 0
118 39 150 31 181 33 c 0
221 34 259 52 290 79 c 0
320 105 342 142 351 182 c 0
355 203 356 225 351 247 c 0
346 267 335 286 320 300 c 0
307 310 291 317 274 322 c 0
258 326 241 328 225 330 c 0
208 331 191 333 174 338 c 0
158 342 142 349 129 360 c 0
112 373 100 392 95 414 c 0
89 436 91 459 97 482 c 0
107 521 129 557 160 585 c 0
190 612 229 631 271 633 c 0
302 634 334 625 360 607 c 0
385 588 402 560 409 530 c 0
Z
Spiro
409 530 v
404 530 v
358 604 c
272 630 c
161 583 c
101 481 c
100 415 c
132 363 c
227 332 c
323 303 c
356 248 c
356 181 c
292 76 c
182 30 c
91 56 c
45 134 v
49 134 v
94 58 c
181 33 c
290 79 c
351 182 c
351 247 c
320 300 c
225 330 c
129 360 c
95 414 c
97 482 c
160 585 c
271 633 c
360 607 c
0 0 z
EndSpiro
EndSplineSet
        Fore
        SplineSet
436 500 m 0
373 500 l 0
373 526 362 553 343 572 c 0
323 590 297 599 271 600 c 0
237 600 204 585 180 562 c 0
155 539 139 509 132 477 c 0
128 460 127 442 131 426 c 0
134 410 143 395 155 384 c 0
167 372 182 364 198 358 c 0
214 353 231 350 248 349 c 0
264 347 281 345 298 342 c 0
315 339 332 333 346 324 c 0
367 308 381 284 388 259 c 0
394 232 393 203 387 177 c 0
375 129 348 86 311 54 c 0
274 22 228 1 181 0 c 0
138 -1 94 13 64 43 c 0
33 72 17 117 23 160 c 0
85 160 l 0
82 132 92 104 112 86 c 0
131 67 159 58 186 59 c 0
219 59 251 74 276 96 c 0
301 118 319 148 325 182 c 0
327 198 327 215 324 232 c 0
320 247 313 263 302 275 c 0
290 287 274 295 258 299 c 0
241 304 224 306 208 308 c 0
174 311 139 315 111 335 c 0
89 349 73 373 67 399 c 0
60 426 63 455 71 482 c 0
83 528 109 570 145 603 c 0
180 635 227 657 276 659 c 0
318 660 362 645 393 616 c 0
423 586 439 542 436 500 c 0
Z
Spiro
436 500 v
373 500 v
343 572 c
271 600 c
180 562 c
132 477 c
131 426 c
155 384 c
248 349 c
346 324 c
388 259 c
387 177 c
311 54 c
181 0 c
64 43 c
23 160 v
85 160 v
112 86 c
186 59 c
276 96 c
325 182 c
324 232 c
302 275 c
208 308 c
111 335 c
67 399 c
71 482 c
145 603 c
276 659 c
393 616 c
0 0 z
EndSpiro
EndSplineSet
        EndChar
StartChar: T
Encoding: 84 84 0
Width: 433
InSpiro: 1
        Flags: H
        LayerCount: 2
        Back
        SplineSet
120 630 m 0
120 634 l 0
424 634 l 0
424 630 l 0
120 630 l 0
Z
269 634 m 0
274 634 l 0
184 30 l 0
179 30 l 0
269 634 l 0
Z
Spiro
120 630 v
120 634 v
424 634 v
424 630 v
269 634 v
274 634 v
184 30 v
179 30 v
0 0 z
EndSpiro
EndSplineSet
        Fore
        SplineSet
89 600 m 0
98 660 l 0
460 660 l 0
451 600 l 0
89 600 l 0
Z
247 660 m 0
310 660 l 0
211 0 l 0
148 0 l 0
247 660 l 0
Z
Spiro
89 600 v
98 660 v
460 660 v
451 600 v
247 660 v
310 660 v
211 0 v
148 0 v
0 0 z
EndSpiro
EndSplineSet
        EndChar
StartChar: V
Encoding: 86 86 0
Width: 433
InSpiro: 1
        Flags: H
        LayerCount: 2
        Back
        SplineSet
120 634 m 0
124 634 l 0
183 40 l 0
419 634 l 0
424 634 l 0
184 30 l 0
179 30 l 0
120 634 l 0
Z
Spiro
120 634 v
124 634 v
183 40 v
419 634 v
424 634 v
184 30 v
179 30 v
0 0 z
EndSpiro
EndSplineSet
        Fore
        SplineSet
98 660 m 0
160 660 l 0
202 153 l 0
397 660 l 0
460 660 l 0
211 0 l 0
148 0 l 0
98 660 l 0
Z
Spiro
98 660 v
160 660 v
202 153 v
397 660 v
460 660 v
211 0 v
148 0 v
0 0 z
EndSpiro
EndSplineSet
        EndChar
StartChar: Z
Encoding: 90 90 0
Width: 433
InSpiro: 1
        Flags: H
        LayerCount: 2
        Back
        SplineSet
120 630 m 0
120 634 l 0
424 634 l 0
424 634 l 0
35 34 l 0
334 34 l 0
334 30 l 0
30 30 l 0
30 30 l 0
418 630 l 0
120 630 l 0
Z
Spiro
120 630 v
120 634 v
424 634 v
424 634 v
35 34 v
334 34 v
334 30 v
30 30 v
30 30 v
418 630 v
0 0 z
EndSpiro
EndSplineSet
        Fore
        SplineSet
89 600 m 0
98 660 l 0
460 660 l 0
460 660 l 0
88 60 l 0
370 60 l 0
361 0 l 0
-1 0 l 0
-1 0 l 0
370 600 l 0
89 600 l 0
Z
Spiro
89 600 v
98 660 v
460 660 v
460 660 v
88 60 v
370 60 v
361 0 v
-1 0 v
-1 0 v
370 600 v
0 0 z
EndSpiro
EndSplineSet
        EndChar
StartChar: b
Encoding: 98 98 0
Width: 433
InSpiro: 1
        Flags: H
        LayerCount: 2
        Back
        SplineSet
120 634 m 0
124 634 l 0
34 30 l 0
30 30 l 0
120 634 l 0
Z
73 290 m 0
69 290 l 0
83 321 107 349 137 368 c 0
166 386 201 396 236 393 c 0
276 389 315 366 338 332 c 0
361 297 367 252 361 211 c 0
353 165 332 123 301 90 c 0
269 57 227 33 182 30 c 0
149 27 115 35 90 55 c 0
65 73 48 103 45 134 c 0
49 134 l 0
52 103 68 75 93 57 c 0
117 38 150 30 181 33 c 0
225 36 267 59 298 92 c 0
328 124 349 167 356 212 c 0
362 252 356 295 334 330 c 0
312 363 274 386 235 390 c 0
201 393 167 383 139 365 c 0
110 346 87 320 73 290 c 0
Z
Spiro
120 634 v
124 634 v
34 30 v
30 30 v
73 290 v
69 290 v
137 368 c
236 393 c
338 332 c
361 211 c
301 90 c
182 30 c
90 55 c
45 134 v
49 134 v
93 57 c
181 33 c
298 92 c
356 212 c
334 330 c
235 390 c
139 365 c
0 0 z
EndSpiro
EndSplineSet
        Fore
        SplineSet
98 660 m 0
160 660 l 0
61 0 l 0
-1 0 l 0
98 660 l 0
Z
100 260 m 0
38 260 l 0
49 305 76 347 113 377 c 0
149 406 197 423 244 419 c 0
291 414 337 388 364 349 c 0
391 308 399 257 392 209 c 0
384 156 359 106 322 68 c 0
285 29 235 3 182 0 c 0
138 -2 93 11 63 42 c 0
32 72 16 117 23 160 c 0
85 160 l 0
80 132 90 104 110 85 c 0
129 66 157 57 185 59 c 0
222 61 257 81 282 109 c 0
307 136 323 172 329 210 c 0
334 243 330 279 312 309 c 0
294 337 263 356 231 360 c 0
200 362 170 351 147 333 c 0
124 314 107 288 100 260 c 0
Z
Spiro
98 660 v
160 660 v
61 0 v
-1 0 v
100 260 v
38 260 v
113 377 c
244 419 c
364 349 c
392 209 c
322 68 c
182 0 c
63 42 c
23 160 v
85 160 v
110 85 c
185 59 c
282 109 c
329 210 c
312 309 c
231 360 c
147 333 c
0 0 z
EndSpiro
EndSplineSet
        EndChar
StartChar: c
Encoding: 99 99 0
Width: 433
InSpiro: 1
        Flags: H
        LayerCount: 2
        Back
        SplineSet
373 292 m 0
368 292 l 0
362 321 345 348 322 366 c 0
297 383 266 391 236 390 c 0
190 387 148 363 118 330 c 0
87 297 68 255 61 212 c 0
54 171 59 127 82 93 c 0
103 59 141 36 182 33 c 0
214 30 247 39 275 56 c 0
304 73 328 100 344 132 c 0
349 132 l 0
333 99 308 72 278 54 c 0
249 36 214 26 181 30 c 0
140 33 101 56 79 90 c 0
55 124 50 169 57 211 c 0
64 255 84 297 115 331 c 0
146 364 189 389 235 393 c 0
266 395 299 387 325 369 c 0
350 350 367 322 373 292 c 0
Z
Spiro
373 292 v
368 292 v
322 366 c
236 390 c
118 330 c
61 212 c
82 93 c
182 33 c
275 56 c
344 132 v
349 132 v
278 54 c
181 30 c
79 90 c
57 211 c
115 331 c
235 393 c
325 369 c
0 0 z
EndSpiro
EndSplineSet
        Fore
        SplineSet
404 290 m 0
341 290 l 0
334 311 320 330 302 343 c 0
283 355 259 361 237 360 c 0
199 357 164 337 139 309 c 0
114 281 98 246 92 210 c 0
86 175 89 139 108 110 c 0
125 81 157 62 191 59 c 0
215 56 241 62 263 75 c 0
285 87 304 107 317 130 c 0
380 130 l 0
362 89 333 54 296 31 c 0
260 8 217 -3 176 0 c 0
128 4 83 29 57 69 c 0
29 109 22 160 30 209 c 0
38 260 62 309 98 348 c 0
134 387 184 414 238 419 c 0
277 422 317 411 349 388 c 0
379 364 399 328 404 290 c 0
Z
Spiro
404 290 v
341 290 v
302 343 c
237 360 c
139 309 c
92 210 c
108 110 c
191 59 c
263 75 c
317 130 v
380 130 v
296 31 c
176 0 c
57 69 c
30 209 c
98 348 c
238 419 c
349 388 c
0 0 z
EndSpiro
EndSplineSet
        EndChar
StartChar: g
Encoding: 103 103 0
Width: 433
InSpiro: 1
        Flags: H
        LayerCount: 2
        Back
        SplineSet
383 394 m 0
388 394 l 0
334 32 l 0
324 -30 313 -93 284 -150 c 0
269 -178 249 -205 225 -227 c 0
200 -248 170 -264 138 -269 c 0
105 -273 70 -266 44 -247 c 0
18 -227 2 -197 1 -166 c 0
5 -166 l 0
6 -196 21 -226 46 -245 c 0
71 -264 105 -270 137 -266 c 0
168 -261 198 -245 223 -224 c 0
247 -203 266 -176 281 -148 c 0
309 -92 319 -30 329 31 c 0
383 394 l 0
Z
373 290 m 0
368 290 l 0
363 319 346 346 323 365 c 0
298 383 266 391 236 390 c 0
190 387 148 363 118 330 c 0
88 297 68 255 61 212 c 0
54 170 59 126 82 92 c 0
104 58 142 36 182 33 c 0
215 30 248 39 277 57 c 0
306 75 329 102 344 134 c 0
349 134 l 0
333 101 308 72 278 54 c 0
249 36 214 26 181 30 c 0
140 33 101 56 79 90 c 0
55 124 50 169 57 211 c 0
64 255 84 297 115 331 c 0
146 365 188 389 235 393 c 0
266 395 299 386 325 368 c 0
350 349 367 320 373 290 c 0
Z
Spiro
383 394 v
388 394 v
334 32 ]
284 -150 c
138 -269 c
44 -247 c
1 -166 v
5 -166 v
46 -245 c
137 -266 c
281 -148 c
329 31 [
373 290 v
368 290 v
323 365 c
236 390 c
118 330 c
61 212 c
82 92 c
182 33 c
277 57 c
344 134 v
349 134 v
278 54 c
181 30 c
79 90 c
57 211 c
115 331 c
235 393 c
325 368 c
0 0 z
EndSpiro
EndSplineSet
        Fore
        SplineSet
361 420 m 0
424 420 l 0
365 30 l 0
354 -39 341 -109 308 -171 c 0
290 -202 267 -232 239 -255 c 0
211 -277 177 -294 141 -299 c 0
118 -302 95 -300 74 -294 c 0
52 -288 32 -277 16 -262 c 0
0 -246 -12 -227 -18 -205 c 0
-25 -184 -26 -161 -22 -140 c 0
40 -140 l 0
37 -153 37 -167 41 -180 c 0
45 -193 52 -205 62 -215 c 0
71 -224 84 -231 97 -236 c 0
110 -240 124 -241 138 -240 c 0
166 -237 193 -222 214 -202 c 0
235 -182 251 -157 263 -131 c 0
285 -80 293 -25 302 29 c 0
361 420 l 0
Z
400 260 m 0
337 260 l 0
338 286 328 314 309 333 c 0
289 351 262 360 236 360 c 0
217 359 198 353 181 344 c 0
165 335 150 323 138 309 c 0
113 281 98 246 92 210 c 0
86 175 89 138 108 109 c 0
125 80 156 61 190 59 c 0
219 56 248 67 272 85 c 0
296 103 314 130 322 160 c 0
385 160 l 0
373 113 346 70 308 41 c 0
271 12 223 -3 177 0 c 0
129 4 83 29 57 69 c 0
29 109 22 160 30 209 c 0
38 261 62 310 99 349 c 0
135 387 185 415 239 419 c 0
281 421 326 406 357 377 c 0
387 347 404 302 400 260 c 0
Z
Spiro
361 420 v
424 420 v
365 30 ]
308 -171 c
141 -299 c
16 -262 c
-22 -140 v
40 -140 v
62 -215 c
138 -240 c
263 -131 c
302 29 [
400 260 v
337 260 v
309 333 c
236 360 c
138 309 c
92 210 c
108 109 c
190 59 c
272 85 c
322 160 v
385 160 v
308 41 c
177 0 c
57 69 c
30 209 c
99 349 c
239 419 c
357 377 c
0 0 z
EndSpiro
EndSplineSet
        EndChar
StartChar: h
Encoding: 104 104 0
Width: 433
InSpiro: 1
        Flags: H
        LayerCount: 2
        Back
        SplineSet
34 30 m 0
30 30 l 0
120 634 l 0
124 634 l 0
34 30 l 0
Z
73 290 m 0
69 290 l 0
86 318 110 343 139 362 c 0
167 380 200 391 235 393 c 0
256 393 278 390 297 381 c 0
317 372 335 358 347 341 c 0
359 322 364 300 366 278 c 0
367 256 364 233 361 212 c 0
334 30 l 0
329 30 l 0
356 212 l 0
359 233 362 254 361 275 c 0
359 297 354 318 343 337 c 0
331 354 315 368 296 377 c 0
277 386 256 390 236 390 c 0
202 389 170 378 142 361 c 0
113 343 89 318 73 290 c 0
Z
Spiro
34 30 v
30 30 v
120 634 v
124 634 v
73 290 v
69 290 v
139 362 c
235 393 c
347 341 c
361 212 [
334 30 v
329 30 v
356 212 ]
343 337 c
236 390 c
142 361 c
0 0 z
EndSpiro
EndSplineSet
        Fore
        SplineSet
61 0 m 0
-1 0 l 0
98 660 l 0
160 660 l 0
61 0 l 0
Z
100 260 m 0
38 260 l 0
53 302 81 340 117 369 c 0
152 397 195 415 240 419 c 0
265 420 291 417 315 408 c 0
339 399 360 383 375 362 c 0
389 340 396 314 398 288 c 0
399 261 395 235 392 210 c 0
361 0 l 0
298 0 l 0
329 210 l 0
331 227 334 245 333 262 c 0
332 280 327 297 319 313 c 0
310 327 297 339 283 347 c 0
268 355 251 359 235 360 c 0
205 360 175 349 152 331 c 0
128 312 110 287 100 260 c 0
Z
Spiro
61 0 v
-1 0 v
98 660 v
160 660 v
100 260 v
38 260 v
117 369 c
240 419 c
375 362 c
392 210 [
361 0 v
298 0 v
329 210 ]
319 313 c
235 360 c
152 331 c
0 0 z
EndSpiro
EndSplineSet
        EndChar
StartChar: i
Encoding: 105 105 0
Width: 133
InSpiro: 1
        Flags: H
        LayerCount: 2
        Back
        SplineSet
84 394 m 0
88 394 l 0
34 30 l 0
30 30 l 0
84 394 l 0
Z
103 505 m 0
103 505 104 505 105 505 c 0
105 506 106 506 107 507 c 0
107 507 108 508 109 508 c 0
110 509 110 509 110 510 c 0
110 510 111 511 111 512 c 0
110 512 110 513 109 514 c 0
109 514 108 515 108 516 c 0
107 516 107 517 106 517 c 0
106 518 105 518 105 519 c 0
104 519 103 519 103 518 c 0
102 518 102 518 102 518 c 0
101 517 100 516 100 516 c 0
99 515 98 514 98 514 c 0
97 513 97 512 97 512 c 0
96 511 96 510 97 509 c 0
97 508 98 507 99 507 c 0
99 506 100 505 100 505 c 0
101 505 102 504 103 505 c 0
Z
Spiro
84 394 v
88 394 v
34 30 v
30 30 v
103 505 c
107 507 c
111 512 c
108 516 c
105 519 c
100 516 c
97 512 c
99 507 c
0 0 z
EndSpiro
EndSplineSet
        Fore
        SplineSet
62 420 m 0
124 420 l 0
61 0 l 0
-1 0 l 0
62 420 l 0
Z
101 475 m 0
110 475 118 479 126 485 c 0
133 491 139 500 141 510 c 0
142 518 139 527 134 534 c 0
128 540 119 544 111 545 c 0
101 545 92 540 85 534 c 0
78 527 72 519 71 510 c 0
70 505 70 501 71 496 c 0
72 492 74 488 77 485 c 0
79 481 83 478 87 477 c 0
91 475 96 474 101 475 c 0
Z
Spiro
62 420 v
124 420 v
61 0 v
-1 0 v
101 475 c
126 485 c
141 510 c
134 534 c
111 545 c
85 534 c
71 510 c
77 485 c
0 0 z
EndSpiro
EndSplineSet
        EndChar
StartChar: l
Encoding: 108 108 0
Width: 283
InSpiro: 1
        Flags: H
        LayerCount: 2
        Back
        SplineSet
120 634 m 0
124 634 l 0
61 212 l 0
57 189 54 167 54 145 c 0
55 123 59 100 71 81 c 0
81 62 99 46 119 38 c 0
139 29 162 28 184 34 c 0
184 30 l 0
162 24 138 25 117 34 c 0
97 43 79 58 68 78 c 0
56 97 51 120 50 143 c 0
50 166 53 189 57 212 c 0
120 634 l 0
Z
Spiro
120 634 v
124 634 v
61 212 ]
71 81 c
184 34 v
184 30 v
68 78 c
57 212 [
0 0 z
EndSpiro
EndSplineSet
        Fore
        SplineSet
98 660 m 0
160 660 l 0
92 210 l 0
88 189 85 167 86 146 c 0
88 125 93 104 106 87 c 0
118 69 137 56 157 51 c 0
178 47 201 49 220 60 c 0
211 0 l 0
184 -14 152 -19 122 -12 c 0
93 -6 66 12 49 37 c 0
31 61 24 91 22 121 c 0
21 150 25 180 30 210 c 0
98 660 l 0
Z
Spiro
98 660 v
160 660 v
92 210 ]
106 87 c
220 60 v
211 0 v
49 37 c
30 210 [
0 0 z
EndSpiro
EndSplineSet
        EndChar
StartChar: r
Encoding: 114 114 0
Width: 373
InSpiro: 1
        Flags: H
        LayerCount: 2
        Back
        SplineSet
34 30 m 0
30 30 l 0
84 394 l 0
88 394 l 0
34 30 l 0
Z
80 340 m 0
76 340 l 0
95 363 121 381 151 391 c 0
178 400 208 402 236 393 c 0
257 385 276 371 290 354 c 0
303 335 311 312 313 290 c 0
308 290 l 0
307 312 299 334 286 352 c 0
273 369 255 382 235 390 c 0
208 399 178 397 152 389 c 0
124 379 98 362 80 340 c 0
Z
Spiro
34 30 v
30 30 v
84 394 v
88 394 v
80 340 v
76 340 v
151 391 c
236 393 c
290 354 c
313 290 v
308 290 v
286 352 c
235 390 c
152 389 c
0 0 z
EndSpiro
EndSplineSet
        Fore
        SplineSet
61 0 m 0
-1 0 l 0
62 420 l 0
124 420 l 0
61 0 l 0
Z
107 310 m 0
45 310 l 0
62 349 93 382 131 403 c 0
167 422 211 430 251 418 c 0
281 408 308 386 325 358 c 0
341 328 347 293 340 260 c 0
277 260 l 0
282 280 280 303 270 323 c 0
260 340 243 355 224 361 c 0
202 367 179 364 159 355 c 0
137 345 119 329 107 310 c 0
Z
Spiro
61 0 v
-1 0 v
62 420 v
124 420 v
107 310 v
45 310 v
131 403 c
251 418 c
325 358 c
340 260 v
277 260 v
270 323 c
224 361 c
159 355 c
0 0 z
EndSpiro
EndSplineSet
        EndChar
StartChar: w
Encoding: 119 119 0
Width: 613
InSpiro: 1
        Flags: H
        LayerCount: 2
        Back
        SplineSet
84 394 m 0
88 394 l 0
153 38 l 0
323 394 l 0
328 394 l 0
393 38 l 0
563 394 l 0
568 394 l 0
394 30 l 0
389 30 l 0
325 385 l 0
154 30 l 0
149 30 l 0
84 394 l 0
Z
Spiro
84 394 v
88 394 v
153 38 v
323 394 v
328 394 v
393 38 v
563 394 v
568 394 v
394 30 v
389 30 v
325 385 v
154 30 v
149 30 v
0 0 z
EndSpiro
EndSplineSet
        Fore
        SplineSet
62 420 m 0
124 420 l 0
168 124 l 0
301 420 l 0
364 420 l 0
408 124 l 0
541 420 l 0
604 420 l 0
421 0 l 0
358 0 l 0
314 295 l 0
181 0 l 0
118 0 l 0
62 420 l 0
Z
Spiro
62 420 v
124 420 v
168 124 v
301 420 v
364 420 v
408 124 v
541 420 v
604 420 v
421 0 v
358 0 v
314 295 v
181 0 v
118 0 v
0 0 z
EndSpiro
EndSplineSet
        EndChar
StartChar: z
Encoding: 122 122 0
Width: 433
InSpiro: 1
        Flags: H
        LayerCount: 2
        Back
        SplineSet
84 390 m 0
84 394 l 0
388 394 l 0
388 394 l 0
36 34 l 0
334 34 l 0
334 30 l 0
30 30 l 0
30 30 l 0
381 390 l 0
84 390 l 0
Z
Spiro
84 390 v
84 394 v
388 394 v
388 394 v
36 34 v
334 34 v
334 30 v
30 30 v
30 30 v
381 390 v
0 0 z
EndSpiro
EndSplineSet
        Fore
        SplineSet
53 360 m 0
62 420 l 0
424 420 l 0
424 420 l 0
103 59 l 0
370 60 l 0
361 0 l 0
-1 0 l 0
-1 0 l 0
318 360 l 0
53 360 l 0
Z
Spiro
53 360 v
62 420 v
424 420 v
424 420 v
103 59 v
370 60 v
361 0 v
-1 0 v
-1 0 v
318 360 v
0 0 z
EndSpiro
EndSplineSet
        EndChar
